# xmcd
# Copyright (C) 1995-1998 Ti Kan
#
# Track frame offsets:
#       150
#       14259
#       35848
#       56325
#       86527
#       104163
#       126781
#       147016
#       163619
#       186619
#       197087
#       216208
#       266728
#       296231
#       313800
#
# Disc length: 4190 seconds
#
# Revision: 2
# Processed by: cddbd v1.4PL0 Copyright (c) Steve Scherf et al.
# Submitted via: CD-Transfer v1.0
#
DISCID=ed105c0f
DTITLE=Sapphire - In Motion
DYEAR=2002
DGENRE=
TTITLE0=Open Up Your Arms
TTITLE1=Shout It Loud
TTITLE2=Summer Rain
TTITLE3=Conscience
TTITLE4=Cybertimes
TTITLE5=Bâle
TTITLE6=Creeper
TTITLE7=Lally King
TTITLE8=Mr. Badger
TTITLE9=Dances With Frogs
TTITLE10=Heartbeat Away
TTITLE11=Into The Dark
TTITLE12=Bâle (Acoustic Version)
TTITLE13=Bye Bye
TTITLE14=_
EXTD=
EXTT0=
EXTT1=
EXTT2=
EXTT3=
EXTT4=
EXTT5=
EXTT6=
EXTT7=
EXTT8=
EXTT9=
EXTT10=
EXTT11=
EXTT12=
EXTT13=
EXTT14=
PLAYORDER=
